<svg width="548" height="66" viewBox="0 0 548 66" fill="none" xmlns="http://www.w3.org/2000/svg">
<g clip-path="url(#clip0_5_780)">
<path d="M457.85 0.0930519C457.746 0.437851 449.044 41.6551 448.956 42.2242C448.754 43.4995 448.71 44.1891 448.781 45.0428C448.929 46.8599 449.427 48.0475 450.478 49.0983C451.589 50.2148 453.039 50.8114 455.19 51.0358C457.735 51.3094 461.571 50.8059 464.702 49.7989C465.6 49.5033 466.623 49.1202 466.705 49.0381C466.749 48.9944 467.126 40.7794 467.088 40.7246C467.077 40.7137 466.82 40.8177 466.508 40.9545C465.496 41.4033 464.395 41.6496 463.432 41.6496C461.976 41.6441 461.194 41.0913 460.915 39.8818C460.816 39.4604 460.8 38.5847 460.882 38.0155C460.931 37.6926 468.878 0.372173 468.96 0.0930519C468.987 0.00548172 468.697 1.14441e-05 463.432 1.14441e-05C458.189 1.14441e-05 457.877 0.00548172 457.85 0.0930519Z" fill="#25B233"/>
<path d="M27.3377 1.02354C21.5527 1.33003 15.9483 3.72721 12.4456 7.3996C10.1086 9.8515 8.49959 12.8671 7.88661 15.9375C7.58559 17.448 7.44877 19.2705 7.54728 20.6005C7.72789 23.1235 8.49959 24.8858 10.1032 26.4347C11.0883 27.3815 12.2595 28.1861 13.8741 29.0125C15.4886 29.8444 16.3752 30.1947 19.7576 31.344C22.3737 32.2361 23.0249 32.4824 24.0758 32.9804C25.8326 33.8178 26.8068 34.7427 27.0367 35.799C27.1461 36.2861 27.0804 37.2603 26.9108 37.7912C26.5386 38.9241 25.7177 39.7834 24.5738 40.2376C23.6324 40.6098 22.6637 40.7466 21.0437 40.7411C18.8326 40.7357 17.4151 40.5003 15.1329 39.7505C11.9804 38.7216 9.11804 37.1399 7.51992 35.5473L7.0164 35.0492L3.53557 39.9311C1.62549 42.6129 0.0437918 44.8459 0.0273728 44.8897C-0.0601953 45.1141 2.60516 46.8873 4.32915 47.7575C4.60281 47.8944 5.13369 48.1407 5.5168 48.3048C10.4753 50.4722 16.1016 51.3971 21.3995 50.9209C25.1758 50.5816 28.5472 49.6403 31.2563 48.1625C33.8232 46.7669 35.7661 45.0046 37.315 42.6731C38.8967 40.2759 39.6793 37.8021 39.9037 34.48C40.0843 31.749 39.7286 29.6802 38.7708 27.9507C38.2673 27.0422 37.9717 26.6427 37.2219 25.871C35.372 23.9664 32.9475 22.7131 27.874 21.0493C24.6668 20.0039 22.4776 19.1556 21.602 18.6247C20.4034 17.9023 19.8834 16.8296 20.0312 15.3792C20.1297 14.4652 20.4034 13.7538 20.9233 13.1079C21.9687 11.8054 23.6817 11.1595 26.0789 11.1541C27.6825 11.1541 28.7388 11.3237 30.4846 11.8601C32.9092 12.6099 35.8537 14.208 37.1891 15.4996C37.4463 15.7514 37.5284 15.8007 37.5777 15.7514C37.6816 15.6419 44.397 6.49655 44.4189 6.43087C44.4572 6.33236 42.3884 5.01337 40.9655 4.23073C38.2563 2.7366 34.6715 1.57632 31.5519 1.18226C30.3095 1.02354 28.5746 0.95787 27.3377 1.02354Z" fill="#25B233"/>
<path d="M279.342 1.47226C279.342 1.49415 277.005 12.5168 274.143 25.964C271.286 39.4111 268.943 50.4338 268.943 50.4666C268.943 50.494 271.1 50.5159 274.63 50.5159H280.316L280.344 50.3626C280.36 50.2805 281.104 46.7395 281.991 42.4924C282.883 38.2454 283.611 34.7536 283.611 34.7372C283.611 34.7153 285.625 34.6989 288.088 34.6989C290.545 34.6989 292.97 34.6715 293.479 34.6442C296.571 34.4635 299.149 33.5824 302.028 31.7216C307.315 28.3009 310.949 22.4667 311.474 16.5832C311.551 15.724 311.507 14.0711 311.392 13.1626C310.538 6.72087 306.28 2.07977 300.676 1.47773C300.014 1.40659 279.342 1.40111 279.342 1.47226ZM297.239 11.5152C298.115 11.7998 298.903 12.484 299.308 13.2994C300.222 15.1603 300.008 18.6411 298.832 21.0164C298.065 22.5652 297.08 23.627 295.843 24.2454C294.831 24.7544 295.039 24.738 290.113 24.738C287.738 24.738 285.8 24.7216 285.8 24.6997C285.8 24.6833 286.43 21.695 287.196 18.0609C287.962 14.4323 288.592 11.4386 288.592 11.4167C288.592 11.3948 290.469 11.3839 292.767 11.3948C296.615 11.4112 296.96 11.4222 297.239 11.5152Z" fill="#25B233"/>
<path d="M389.76 2.69282C389.749 2.73113 389.185 5.32534 388.512 8.4559L387.286 14.1478L385.146 14.1642C383.171 14.1752 383.006 14.1861 382.979 14.2737C382.952 14.3667 381.217 22.1548 381.157 22.4504L381.129 22.6036H383.296C384.49 22.6036 385.464 22.6091 385.464 22.62C385.464 22.6255 384.555 26.9328 383.444 32.1814C382.333 37.4355 381.381 42.0054 381.337 42.3393C381.146 43.7294 381.173 45.2783 381.414 46.3565C381.808 48.1078 382.667 49.2462 384.205 50.0453C385.699 50.8224 386.914 51.107 388.966 51.1563C392.327 51.2384 396.257 50.412 400.077 48.8084L400.651 48.5676L400.668 44.1508C400.673 41.7208 400.673 39.7341 400.662 39.7341C400.651 39.7341 400.312 39.86 399.907 40.0132C398.243 40.6426 396.579 41.0476 395.66 41.0476C394.538 41.0476 393.64 40.5277 393.394 39.7451C393.301 39.4331 393.268 38.5301 393.339 38.1086C393.378 37.9061 394.117 34.3432 394.992 30.1947C395.862 26.0407 396.574 22.6365 396.574 22.6255C396.574 22.6146 398.145 22.6036 400.066 22.6036H403.558L404.444 18.4824C404.931 16.2166 405.331 14.3175 405.331 14.2682C405.331 14.1807 405.063 14.1752 401.866 14.1642L398.402 14.1478L399.617 8.51063C400.29 5.40743 400.837 2.8187 400.837 2.74755L400.843 2.62715H395.315C390.937 2.62715 389.776 2.64357 389.76 2.69282Z" fill="#25B233"/>
<path d="M104.781 13.19C102.389 13.3925 100.118 14.0055 97.9941 15.018C97.6658 15.1822 97.2881 15.3683 97.1622 15.4449L96.9324 15.5763L97.3921 16.2166C99.2693 18.8436 100.424 21.7389 100.928 25.0665C101.086 26.1282 101.13 28.5199 101.015 29.609C100.971 30.0141 100.939 30.3534 100.944 30.3589C100.961 30.3807 105.547 31.1853 105.558 31.1743C105.591 31.147 108.71 13.3487 108.688 13.3269C108.557 13.201 105.831 13.1079 104.781 13.19Z" fill="#25B233"/>
<path d="M69.3539 13.5732C69.1021 13.6005 68.5494 13.6826 68.1225 13.7647C65.6377 14.219 63.4759 15.2424 61.232 17.0321C60.5971 17.5411 59.0975 18.986 58.6377 19.5442C58.4626 19.7522 58.3148 19.9164 58.3094 19.9054C58.3039 19.8999 58.5775 18.6412 58.9223 17.1087C59.2671 15.5763 59.5463 14.2846 59.5463 14.2463C59.5463 14.1861 58.6925 14.1752 54.6917 14.1861L49.8372 14.2025L44.4353 39.5973C41.458 53.5644 39.028 65.0358 39.0225 65.0851C39.0225 65.1781 39.3235 65.1836 44.5666 65.1836H50.1053L52.2945 55.0038C53.4931 49.4049 54.4892 44.824 54.5056 44.824C54.5275 44.824 54.6096 45.0265 54.6917 45.2783C55.0201 46.236 55.6823 47.3635 56.3555 48.1133C57.8058 49.7278 59.6338 50.6582 62.1186 51.0468C63.0928 51.1946 65.4352 51.1836 66.4696 51.0195C70.2296 50.4284 73.8144 48.4581 76.8683 45.3056C80.2561 41.8139 82.615 37.025 83.3757 32.0993C83.7151 29.8827 83.7479 27.3706 83.4578 25.3675C82.9707 21.9687 81.6846 19.1392 79.6924 17.0649C77.9629 15.2588 75.7464 14.104 73.1522 13.6498C72.572 13.5458 70.0873 13.4965 69.3539 13.5732ZM66.6338 22.9922C68.4235 23.1728 69.7917 23.9992 70.8042 25.5207C72.0849 27.4363 72.4078 30.118 71.7018 32.9531C71.3023 34.5457 70.3719 36.4448 69.2937 37.8624C67.9309 39.652 65.9387 41.0969 64.1764 41.573C62.3047 42.0766 60.5807 41.7427 59.2562 40.6207C57.981 39.5371 56.9411 37.6763 56.558 35.7936L56.465 35.3283L57.2476 31.6341C58.0084 28.0383 58.0357 27.9343 58.2273 27.6661C59.393 26.0188 61.1061 24.5411 62.8027 23.7256C63.6674 23.3096 64.3242 23.1126 65.3477 22.9648C65.6322 22.9265 66.0591 22.932 66.6338 22.9922Z" fill="#25B233"/>
<path d="M155.406 13.5567C151.312 13.885 147.749 15.2861 144.816 17.7216C144.312 18.1376 143.223 19.2212 142.829 19.6919C142.648 19.9108 142.49 20.0805 142.479 20.0641C142.462 20.0476 143.568 14.8373 143.705 14.2955L143.732 14.1751H138.719C135.96 14.1751 133.706 14.1861 133.706 14.2025C133.706 14.2134 131.971 22.3627 129.847 32.3127C127.724 42.2626 125.989 50.4283 125.989 50.4557C125.989 50.4995 127.658 50.5159 131.533 50.5159H137.077L139.283 40.1281C141.767 28.4323 141.45 29.6692 142.309 28.3995C144.011 25.8764 146.846 23.7857 149.128 23.3698C149.626 23.2822 150.497 23.2931 150.896 23.3971C151.969 23.6763 152.763 24.4863 153.047 25.5863C153.277 26.4456 153.299 28.093 153.107 29.3353C153.058 29.6528 152.035 34.5128 150.831 40.1391C149.632 45.7653 148.647 50.4064 148.647 50.4447C148.647 50.5049 149.643 50.5159 154.191 50.5159H159.73L162.236 38.6504C163.616 32.1266 164.803 26.4456 164.874 26.0242C165.394 22.9538 165.367 20.3432 164.787 18.3674C164.004 15.7076 161.848 13.989 158.799 13.6004C158.208 13.5238 156.117 13.4965 155.406 13.5567Z" fill="#25B233"/>
<path d="M185.289 13.5786C182.984 13.8085 181.02 14.3284 179.022 15.2424C174.321 17.3879 171.119 21.3667 170.517 25.8053C170.221 28.0164 170.457 29.6036 171.267 30.8569C172.055 32.0719 173.215 33.0023 175.164 33.9765C176.389 34.5895 177.916 35.1861 180.319 35.9906C181.189 36.2807 182.202 36.6255 182.579 36.7623C184.577 37.4847 185.661 38.1798 186.055 38.9953C186.192 39.2689 186.219 39.4003 186.235 39.8436C186.29 41.2064 185.622 42.301 184.391 42.8647C182.848 43.5707 180.095 43.4394 177.61 42.5473C175.629 41.8303 173.598 40.6481 171.743 39.1266C171.382 38.8311 171.064 38.5848 171.037 38.5848C171.004 38.5848 168.913 41.2173 165.952 44.9992L165.662 45.3659L166.226 45.9515C167.375 47.1446 168.514 47.9874 170.074 48.7974C172.312 49.9632 174.901 50.7075 177.955 51.0687C178.77 51.1672 182.049 51.1672 182.963 51.0742C188.999 50.4284 193.547 47.7795 195.895 43.5324C196.672 42.1258 197.154 40.6043 197.357 38.8913C197.444 38.1579 197.433 36.6747 197.335 36.0617C196.76 32.5207 193.941 30.4683 186.602 28.2463C184.506 27.606 183.866 27.3816 182.984 26.9547C182.114 26.5332 181.687 26.172 181.43 25.6466C181.107 24.9953 181.167 24.0157 181.572 23.1619C182.016 22.2424 183.045 21.5747 184.424 21.312C185.081 21.1916 186.531 21.2299 187.314 21.3996C189.267 21.8155 191.282 22.8882 193.64 24.7764C193.991 25.0555 194.292 25.2854 194.308 25.2854C194.341 25.2854 199.951 18.7233 199.978 18.6521C200 18.581 199.059 17.6287 198.424 17.0814C196.01 15.0126 193.279 13.9563 189.448 13.6005C188.512 13.513 186.06 13.502 185.289 13.5786Z" fill="#25B233"/>
<path d="M222.779 13.5512C218.789 13.8631 215.456 14.9468 212.167 17.0046C209.726 18.5316 207.487 20.6387 205.774 23.0195C204.455 24.8584 203.224 27.3212 202.55 29.4721C201.39 33.1828 201.221 37.0741 202.069 40.5002C202.726 43.1492 203.935 45.3603 205.697 47.1335C207.471 48.9177 209.895 50.2094 212.544 50.784C214.963 51.304 218.22 51.3094 221.126 50.784C225.34 50.0287 229.642 47.7793 232.827 44.6707C235.378 42.1914 237.211 39.3454 238.426 36.0014C239.581 32.8052 239.986 28.9741 239.499 25.8107C238.826 21.4378 236.779 18.0828 233.478 15.91C233.161 15.7021 232.488 15.3299 231.973 15.0781C230.43 14.3174 229.095 13.9179 227.239 13.6497C226.637 13.5676 223.507 13.4964 222.779 13.5512ZM223.791 23.0632C224.951 23.3095 225.915 23.9389 226.659 24.9295C227.36 25.86 227.776 26.9217 228.011 28.3775C228.109 28.9577 228.109 30.9991 228.011 31.7434C227.71 34.1516 226.659 36.6199 225.17 38.4424C223.282 40.752 220.524 42.0327 218.039 41.7645C216.425 41.5894 215.242 40.8615 214.339 39.4823C213.83 38.6996 213.48 37.7637 213.272 36.6199C213.13 35.8537 213.108 33.9874 213.223 33.057C213.464 31.125 214.126 29.2423 215.138 27.6223C216.786 24.9733 219.101 23.3588 221.766 22.9866C222.226 22.9209 223.337 22.9647 223.791 23.0632Z" fill="#25B233"/>
<path d="M423.337 13.5567C420.65 13.8139 418.225 14.6513 415.801 16.1564C413.409 17.6396 411.116 19.8342 409.457 22.2424C408.1 24.2126 406.869 26.7029 406.13 28.9796C404.718 33.3361 404.581 38.1907 405.752 42.0875C406.705 45.2618 408.554 47.7849 411.077 49.3666C412.424 50.2094 413.989 50.7786 415.73 51.0468C416.627 51.1836 418.997 51.1836 419.889 51.0468C422.85 50.5871 425.499 49.4377 427.743 47.6371C428.46 47.0679 429.598 45.935 430.206 45.1962C430.441 44.9006 430.649 44.6707 430.66 44.6872C430.671 44.6981 430.654 44.8787 430.622 45.0922C430.315 47.0515 430.665 48.6004 431.629 49.5581C433.117 51.0413 436.264 51.4354 440.374 50.6473C441.037 50.5214 441.13 50.4885 441.152 50.3846C441.277 49.8427 443.04 41.272 443.04 41.1954C443.04 41.1297 442.996 41.1023 442.881 41.1023C442.629 41.1023 442.088 40.9108 441.869 40.7466C441.42 40.4073 441.267 39.7122 441.398 38.6559C441.442 38.2783 446.236 15.9265 446.57 14.5145L446.597 14.3941L441.004 14.405L435.405 14.4214L434.808 17.1963C434.475 18.7287 434.19 19.9601 434.168 19.9328C434.146 19.9109 434.102 19.7959 434.064 19.6755C433.938 19.2486 433.238 17.9187 432.893 17.4371C431.295 15.226 428.98 13.896 426.156 13.5731C425.707 13.5239 423.797 13.5075 423.337 13.5567ZM427.442 23.0743C428.219 23.2494 428.925 23.5942 429.587 24.1306C430.961 25.2361 431.82 26.7083 432.203 28.602L432.313 29.1548L431.519 32.9421C431.081 35.0273 430.704 36.7732 430.676 36.8225C430.556 37.0468 429.757 38.0484 429.324 38.5136C428.153 39.7833 426.402 40.96 424.979 41.4307C423.578 41.8959 422.045 41.9178 420.77 41.4909C418.619 40.7685 417.142 38.7271 416.769 35.9632C416.682 35.301 416.693 33.7959 416.797 33.057C417.317 29.3025 419.429 25.9695 422.461 24.1087C423.364 23.5559 424.355 23.1673 425.198 23.0469C425.422 23.0141 425.668 22.9757 425.745 22.9648C426.008 22.9155 427.053 22.9867 427.442 23.0743Z" fill="#25B233"/>
<path d="M492.488 13.5568C489.861 13.7319 487.004 14.4379 484.596 15.5106C479.474 17.7929 475.566 21.4926 473.196 26.2979C472.107 28.5145 471.488 30.5723 471.138 33.1665C470.99 34.2338 470.99 37.3041 471.133 38.3659C471.757 42.9742 473.814 46.4605 477.219 48.6825C479.829 50.3846 482.692 51.1727 486.266 51.1727C491.503 51.1727 496.85 49.2189 501.081 45.7599C501.902 45.0867 503.15 43.8663 503.746 43.1548C504.359 42.4159 504.956 41.5895 504.901 41.5402C504.868 41.5129 498.076 39.3401 496.423 38.8311L496.199 38.76L495.854 39.247C495.444 39.8327 494.727 40.6044 494.19 41.0422C493.112 41.9233 491.689 42.6348 490.387 42.9413C489.04 43.2588 487.409 43.2533 486.194 42.9359C485.773 42.8264 484.958 42.4269 484.607 42.1587C483.381 41.2173 482.648 39.2689 482.522 36.62L482.484 35.8757L485.379 35.8921C490.66 35.9249 494.201 35.5911 497.524 34.7428C500.879 33.889 503.309 32.6357 505.076 30.8405C507.058 28.8319 507.993 26.0243 507.736 22.8937C507.534 20.4801 506.713 18.5865 505.213 17.0759C503.254 15.1001 500.408 13.9508 496.621 13.6005C495.854 13.5294 493.315 13.502 492.488 13.5568ZM493.78 21.5966C494.371 21.6951 495.104 21.9578 495.559 22.226C496.281 22.6474 496.845 23.3972 497.004 24.1416C497.108 24.6068 497.047 25.5043 496.894 25.9148C496.445 27.0806 495.334 27.8906 493.523 28.3667C491.804 28.821 489.648 29.0071 486.047 29.0071H483.764L483.907 28.6623C484.148 28.0712 484.673 26.9985 484.968 26.5059C485.614 25.4222 486.151 24.7436 487.065 23.8351C488.444 22.4668 489.653 21.8484 491.585 21.5473C491.968 21.4871 493.304 21.5145 493.78 21.5966Z" fill="#25B233"/>
<path d="M537.367 13.5567C536.76 13.6004 535.369 13.8029 534.751 13.9343C531.938 14.5309 529.272 15.7678 527.105 17.4972C526.531 17.9515 525.233 19.2157 524.823 19.7193C524.653 19.9218 524.511 20.0805 524.495 20.0695C524.484 20.0586 524.757 18.7341 525.108 17.1305C525.452 15.5215 525.737 14.2025 525.737 14.1915C525.737 14.1806 523.488 14.1751 520.735 14.1751H515.738L515.705 14.3229C515.688 14.4104 513.948 22.5598 511.841 32.444C509.728 42.3283 508.004 50.4338 508.004 50.4666C508.004 50.494 510.128 50.5159 513.554 50.5159H519.098L519.158 50.2313C519.191 50.0726 520.176 45.4096 521.353 39.8709C523.734 28.6567 523.466 29.6966 524.232 28.5417C525.266 26.9819 526.399 25.8381 527.981 24.7818C529.114 24.0265 530.192 23.5449 531.144 23.3698C531.642 23.2822 532.513 23.2931 532.912 23.3971C533.892 23.6544 534.674 24.3713 534.986 25.3127C535.309 26.2814 535.353 28.0547 535.09 29.5543C535.057 29.7513 534.056 34.4635 532.868 40.0351C531.681 45.6011 530.695 50.2422 530.679 50.3407L530.646 50.5159H536.196H541.751L544.225 38.7872C545.588 32.34 546.764 26.7302 546.841 26.3252C547.481 22.8608 547.388 19.7521 546.589 17.7545C545.702 15.5324 543.787 14.0766 541.198 13.6497C540.673 13.5621 538.09 13.4965 537.367 13.5567Z" fill="#25B233"/>
<path d="M110.319 13.7702C110.111 14.8155 107.216 31.4316 107.238 31.4535C107.287 31.5082 111.786 32.2854 111.819 32.247C111.835 32.2252 111.917 31.9351 112.005 31.6067C113.176 26.9765 116.099 22.8444 120.122 20.1189C120.384 19.9437 120.603 19.7795 120.614 19.7576C120.636 19.6974 119.76 18.7725 119.131 18.1814C117.385 16.5559 115.168 15.1877 112.897 14.3448C112.169 14.0712 110.954 13.7154 110.549 13.6498C110.363 13.6169 110.352 13.6279 110.319 13.7702Z" fill="#25B233"/>
<path d="M268.632 13.7372C266.278 13.9288 263.865 14.996 261.473 16.9116C260.258 17.8858 258.545 19.6754 257.587 20.978C257.439 21.1805 257.313 21.3392 257.308 21.3283C257.302 21.3228 257.642 19.7521 258.058 17.842C258.474 15.9319 258.813 14.3228 258.818 14.2681C258.818 14.1805 258.539 14.1751 253.734 14.1751C248.934 14.1751 248.644 14.1805 248.617 14.2681C248.551 14.4925 240.922 50.3407 240.922 50.4228C240.922 50.5104 241.288 50.5158 246.46 50.5049L251.999 50.4885L254.281 39.7614C255.54 33.8615 256.58 28.9522 256.602 28.8591C256.624 28.7223 256.815 28.4925 257.357 27.9506C258.375 26.9272 259.218 26.3033 260.449 25.6793C262.628 24.5683 265.08 23.9389 267.991 23.7419L268.927 23.6817L269.956 18.7614C270.58 15.7841 270.968 13.8248 270.936 13.7974C270.865 13.7263 269.277 13.688 268.632 13.7372Z" fill="#25B233"/>
<path d="M377.966 13.7373C374.332 14.0328 370.342 16.5997 367.211 20.6497C366.938 21 366.713 21.2681 366.702 21.2408C366.691 21.2079 368.131 14.498 368.202 14.2682C368.229 14.1806 367.961 14.1751 363.117 14.1751H358L357.945 14.4323C357.913 14.5801 356.172 22.7294 354.082 32.5425C351.985 42.3611 350.272 50.4174 350.272 50.4557C350.272 50.4995 351.728 50.5159 355.816 50.5159H361.361L363.654 39.7176C364.913 33.7849 365.98 28.8428 366.024 28.7443C366.133 28.4925 367.266 27.3596 367.852 26.9108C370.293 25.0445 373.675 23.939 377.626 23.7255C377.993 23.7036 378.294 23.6708 378.294 23.6489C378.294 23.6325 378.759 21.4104 379.329 18.7177C380.035 15.3573 380.341 13.8084 380.297 13.7865C380.193 13.7209 378.557 13.6935 377.966 13.7373Z" fill="#25B233"/>
<path d="M328.435 13.9343C324.993 14.2353 321.84 15.3792 319.076 17.3276C315.82 19.6262 313.324 23.014 312.104 26.8123C311.469 28.7716 311.223 30.43 311.228 32.6465C311.228 34.272 311.294 34.9452 311.578 36.3517C313.116 43.8717 319.169 49.7332 326.717 51.003C327.877 51.2 328.55 51.2493 329.885 51.2493C331.232 51.2493 331.905 51.2 333.06 51.003C339.534 49.9084 345.029 45.3822 347.366 39.2251C347.892 37.8349 348.226 36.4831 348.444 34.8631C348.57 33.9491 348.587 31.4315 348.477 30.5394C347.941 26.1665 346.14 22.412 343.13 19.3964C340.175 16.4355 336.53 14.6294 332.294 14.0328C331.719 13.9562 329.021 13.8851 328.435 13.9343ZM326.684 18.0555L329.42 20.2173V23.9663L329.415 27.7208L327.143 29.3627C325.896 30.2658 324.839 30.9991 324.796 30.9882C324.697 30.9718 318.31 28.3119 318.272 28.2736C318.233 28.2408 315.847 21.7826 315.847 21.7224C315.847 21.6239 316.728 20.6169 317.38 19.9765C319.087 18.2854 320.954 17.0485 323.258 16.0852C323.531 15.9703 323.799 15.8827 323.854 15.8882C323.903 15.8937 325.179 16.8678 326.684 18.0555ZM336.475 16.0743C337.17 16.3424 338.62 17.0813 339.315 17.5137C340.842 18.466 342.348 19.785 343.557 21.2244C343.836 21.5582 343.929 21.706 343.907 21.7881C343.853 21.9961 341.554 28.2134 341.516 28.2572C341.494 28.2845 340 28.9194 338.199 29.6637L334.926 31.0265L333.175 29.7513C332.206 29.0508 331.177 28.3119 330.887 28.0985L330.356 27.7208V23.9718L330.351 20.2173L333.104 18.0445C334.614 16.8514 335.873 15.8718 335.906 15.8718C335.933 15.8718 336.19 15.9648 336.475 16.0743ZM321.402 30.5941C323.143 31.3166 324.577 31.9186 324.588 31.9296C324.62 31.9624 326.301 37.1563 326.301 37.2274C326.301 37.2657 325.387 38.4205 324.276 39.7888L322.251 42.279L321.988 42.3173C321.632 42.3666 315.322 42.6019 315.234 42.5636C315.147 42.5308 314.599 41.666 314.222 40.9655C313.045 38.7872 312.306 36.193 312.153 33.7302L312.115 33.1172L315.059 31.1524C317.418 29.5816 318.031 29.1931 318.119 29.2314C318.179 29.2533 319.656 29.8662 321.402 30.5941ZM347.623 33.7028C347.437 36.6692 346.458 39.6684 344.882 42.1148L344.58 42.58H344.208C343.437 42.5746 337.57 42.3228 337.542 42.29C337.356 42.1039 333.47 37.2822 333.47 37.2384C333.47 37.1782 335.156 31.9569 335.183 31.9296C335.189 31.9186 336.672 31.3002 338.478 30.5504L341.762 29.1876L344.712 31.1524L347.662 33.1227L347.623 33.7028ZM334.702 40.2649C335.818 41.6387 336.732 42.8044 336.743 42.8537C336.765 42.9796 334.893 49.6019 334.822 49.6511C334.724 49.7114 333.695 49.9522 333.032 50.0726C330.931 50.4502 328.758 50.4393 326.629 50.0507C325.983 49.9303 324.949 49.6785 324.905 49.6293C324.878 49.5964 323.017 42.9522 323.017 42.8756C323.017 42.8154 325.939 39.1758 326.886 38.0484L327.133 37.7638L329.902 37.7693H332.677L334.702 40.2649Z" fill="#25B233"/>
<path d="M94.9785 16.835C93.7198 17.7763 92.3187 19.1117 91.432 20.2228C89.7245 22.3682 88.4876 24.831 87.8472 27.3869C87.7104 27.9288 87.7049 27.9999 87.7815 28.0327C87.9895 28.1258 99.2311 30.0632 99.2749 30.014C99.3679 29.9209 99.4609 28.1915 99.4281 27.1461C99.3186 23.7857 98.328 20.6223 96.5055 17.842C96.0403 17.136 95.5587 16.4738 95.504 16.4738C95.4821 16.4738 95.2467 16.6379 94.9785 16.835Z" fill="#25B233"/>
<path d="M121.046 21.4816C120.007 22.1931 119.312 22.7733 118.403 23.6708C117.434 24.6341 116.876 25.3018 116.176 26.3307C114.982 28.0875 114.194 29.8225 113.647 31.8639C113.483 32.4878 113.472 32.5645 113.554 32.5864C113.729 32.6356 124.867 34.5895 124.982 34.5895C125.091 34.5895 125.102 34.5457 125.168 33.7083C125.25 32.6466 125.211 30.5723 125.091 29.6911C124.681 26.7576 123.695 24.1251 122.086 21.6568C121.873 21.3339 121.687 21.0712 121.67 21.0712C121.654 21.0766 121.369 21.2572 121.046 21.4816Z" fill="#25B233"/>
<path d="M87.3875 29.817C87.2287 30.5942 87.2069 33.0516 87.3492 34.2338C87.5517 35.9797 88.0388 37.8678 88.6846 39.4167C88.909 39.9695 89.5493 41.2611 89.812 41.7044C90.1678 42.3119 90.7534 43.1821 90.8081 43.1821C90.8738 43.1821 91.3882 42.8537 91.8644 42.5089C95.0278 40.2048 97.2991 37.129 98.5031 33.5223C98.7166 32.8819 99.0285 31.7435 98.9957 31.7162C98.9848 31.7107 96.4289 31.2564 93.3147 30.7037C90.2006 30.1564 87.6009 29.6966 87.5352 29.6802C87.4422 29.6583 87.4148 29.6857 87.3875 29.817Z" fill="#25B233"/>
<path d="M100.627 32.0773C100.61 32.1211 100.534 32.4112 100.457 32.7286C100.172 33.8889 99.5868 35.4597 98.9903 36.6418C97.5344 39.5589 95.181 42.2407 92.4555 44.0961C92.1162 44.3259 91.837 44.5339 91.837 44.5558C91.837 44.6488 93.5939 46.3619 94.1412 46.8107C95.9801 48.3048 97.8902 49.3666 100.118 50.1273C100.966 50.4174 102.061 50.7075 102.11 50.6582C102.143 50.6254 105.246 33.0844 105.246 32.9202C105.246 32.8162 105.104 32.7834 103.1 32.4276C101.918 32.2196 100.884 32.039 100.802 32.0281C100.703 32.0117 100.643 32.0336 100.627 32.0773Z" fill="#25B233"/>
<path d="M105.333 42.0382C104.469 46.9475 103.768 50.9702 103.779 50.9811C103.845 51.0413 105.333 51.1234 106.286 51.1234C109.312 51.1179 111.879 50.5214 114.621 49.1914C115.125 48.9452 115.535 48.7317 115.535 48.7098C115.535 48.6934 115.371 48.4526 115.163 48.1789C113.226 45.5409 111.945 42.29 111.512 38.9131C111.381 37.9171 111.348 36.204 111.43 35.1313C111.469 34.6387 111.507 34.1626 111.507 34.075L111.512 33.9163L109.269 33.5168C108.037 33.2978 106.997 33.1172 106.964 33.1118C106.932 33.1118 106.28 36.6637 105.333 42.0382Z" fill="#25B233"/>
<path d="M113.165 34.3651C113.143 34.4581 113.1 34.978 113.067 35.5199C112.908 37.9225 113.308 40.5879 114.189 42.9358C114.753 44.4409 115.623 46.039 116.553 47.2923L116.958 47.8396L117.276 47.6152C118.534 46.7176 120.127 45.218 121.03 44.0851C122.491 42.2462 123.597 40.2157 124.281 38.0922C124.5 37.4081 124.806 36.2861 124.774 36.2587C124.763 36.2532 122.207 35.799 119.093 35.2517C115.978 34.7044 113.379 34.2392 113.313 34.2282C113.22 34.2009 113.193 34.2282 113.165 34.3651Z" fill="#25B233"/>
</g>
<defs>
<clipPath id="clip0_5_780">
<rect width="547.301" height="65.1835" fill="white"/>
</clipPath>
</defs>
</svg>
